<?xml version="1.0" standalone="no"?><!DOCTYPE svg PUBLIC "-//W3C//DTD SVG 1.1//EN" "http://www.w3.org/Graphics/SVG/1.1/DTD/svg11.dtd"><svg t="1538039445012" class="icon" style="" viewBox="0 0 1024 1024" version="1.1" xmlns="http://www.w3.org/2000/svg" p-id="2437" xmlns:xlink="http://www.w3.org/1999/xlink" width="16" height="16"><defs><style type="text/css"></style></defs><path d="M841.136333 292.575778h-73.141407v-36.535183C767.994926 114.5378 653.375937 0 511.994926 0S255.994926 114.5378 255.994926 256v36.535183h-73.141408A146.333558 146.333558 0 0 0 36.570704 438.858593v438.858592A146.343707 146.343707 0 0 0 182.853518 1024h658.282815a146.343707 146.343707 0 0 0 146.282815-146.282815V438.858593a146.292963 146.292963 0 0 0-146.282815-146.282815z m-512-36.535183a182.858593 182.858593 0 1 1 365.717185 0v36.535183H329.136333v-36.535183z m585.141407 621.67659a73.070367 73.070367 0 0 1-73.141407 73.141408H182.853518a73.070367 73.070367 0 0 1-73.141407-73.141408V438.858593a73.070367 73.070367 0 0 1 73.141407-73.141408h73.141408V475.464817a36.570704 36.570704 0 0 0 73.141407 0V365.717185h365.717185V475.464817a36.570704 36.570704 0 1 0 73.141408 0V365.717185h73.141407a73.070367 73.070367 0 0 1 73.141407 73.141408v438.858592z" p-id="2438" fill="#999999"></path><path d="M478.199881 857.8867c0.223271 0.588622 0.953974 0.872785 1.248286 1.532448 1.684678 3.156234 3.359207 6.363211 6.089197 9.072904 0.811893 0.801744 1.826759 1.096056 2.709692 1.826759a31.866799 31.866799 0 0 0 8.342201 5.551318 16.410387 16.410387 0 0 0 2.12107 0.659663c4.313181 1.765867 8.413241 4.059465 13.315045 4.059465 14.624222 0 26.619941-8.991715 32.475718-21.423826l139.676036-139.584698a35.144817 35.144817 0 1 0-49.728444-49.667552l-85.918573 85.877979v-204.292567a36.570704 36.570704 0 1 0-73.141407 0v204.292567l-85.837384-85.877979a35.144817 35.144817 0 1 0-49.728444 49.667552l138.377007 138.305967z" p-id="2439" fill="#999999"></path></svg>