<?xml version="1.0" encoding="utf-8"?>
<!-- Generator: Adobe Illustrator 21.0.0, SVG Export Plug-In . SVG Version: 6.00 Build 0)  -->
<svg version="1.1" id="图层_1" xmlns="http://www.w3.org/2000/svg" xmlns:xlink="http://www.w3.org/1999/xlink" x="0px" y="0px"
	 viewBox="0 0 16 16" style="enable-background:new 0 0 16 16;" xml:space="preserve">
<style type="text/css">
	.st0{fill:#0C9D0F;}
</style>
<path class="st0" d="M8,16c-2.3,0-6.6-3.6-6.6-6.9V2.4h0.7c0,0,1.5,0,3-0.6c1.6-0.6,2.6-1.4,2.6-1.4L8,0.1l0.4,0.3
	c0,0,1,0.7,2.6,1.4c1.5,0.6,3,0.6,3,0.6h0.7v6.7C14.7,12.4,10.3,16,8,16L8,16z M2.7,3.7v5.4c0,2.6,3.8,5.6,5.3,5.6s5.3-3,5.3-5.6
	V3.7c-0.7-0.1-1.7-0.3-2.8-0.7C9.4,2.5,8.5,2,8,1.7C7.6,2,6.7,2.5,5.6,3C4.4,3.4,3.4,3.6,2.7,3.7L2.7,3.7z M7.7,11.6L4.8,9.2l0.9-1
	l1.8,1.5l3.4-4l1,0.9L7.7,11.6L7.7,11.6z"/>
</svg>
