<?xml version="1.0" standalone="no"?><!DOCTYPE svg PUBLIC "-//W3C//DTD SVG 1.1//EN" "http://www.w3.org/Graphics/SVG/1.1/DTD/svg11.dtd"><svg t="1538039432124" class="icon" style="" viewBox="0 0 1024 1024" version="1.1" xmlns="http://www.w3.org/2000/svg" p-id="2218" xmlns:xlink="http://www.w3.org/1999/xlink" width="16" height="16"><defs><style type="text/css"></style></defs><path d="M659.968 512.512c19.968 0 36.352-16.384 36.352-36.352 0-19.968-16.384-36.352-36.352-36.352h-111.104v-1.536L684.544 296.96c13.824-14.848 13.824-37.888-1.024-51.712-14.336-13.824-37.376-13.312-51.712 1.024l-116.224 121.856-122.88-122.368c-14.336-14.336-37.376-14.336-51.712 0s-14.848 37.376-0.512 51.712l135.168 135.68v6.656H367.616c-19.968 0-36.352 16.384-36.352 36.352s16.384 36.352 36.352 36.352h108.032v73.216H367.616c-19.968 0-36.352 16.384-36.352 36.352 0 19.968 16.384 36.352 36.352 36.352h108.032v108.544c0 19.968 16.384 36.352 36.352 36.352 19.968 0 36.352-16.384 36.352-36.352v-108.544h111.104c19.968 0 36.352-16.384 36.352-36.352 0-19.968-16.384-36.352-36.352-36.352h-111.104v-73.216h111.616zM987.136 208.896h-269.312c-20.48 0-36.864-16.384-36.864-36.864s16.384-36.864 36.864-36.864h269.312c20.48 0 36.864 16.384 36.864 36.864 0 19.968-16.384 36.864-36.864 36.864z" fill="#999999" p-id="2219"></path><path d="M816.128 305.664V36.864c0-20.48 16.384-36.864 36.864-36.864s36.864 16.384 36.864 36.864v269.312c0 20.48-16.384 36.864-36.864 36.864-20.48-0.512-36.864-16.896-36.864-37.376z" fill="#999999" p-id="2220"></path><path d="M1023.488 485.888v24.576c0-19.968-16.384-36.352-36.352-36.352-19.968 0-36.352 16.384-36.352 36.352v2.048c0 241.664-196.608 438.784-438.272 438.784-241.664 0-438.784-197.12-438.784-438.784s196.608-438.784 438.784-438.784h12.8c19.968 0 36.352-16.384 36.352-36.352 0-19.968-16.384-36.352-36.352-36.352h-12.288C230.912 1.024 1.024 230.4 1.024 512.512 1.024 794.624 230.4 1024 512.512 1024c282.112 0 511.488-229.376 511.488-511.488 0-9.216 0-17.92-0.512-26.624z" fill="#999999" p-id="2221"></path><path d="M987.136 474.112z" fill="#999999" p-id="2222"></path></svg>