<svg id="图层_1" data-name="图层 1" xmlns="http://www.w3.org/2000/svg" viewBox="0 0 16 16"><defs><style>.cls-1{fill:#d43f39;}</style></defs><title>删除</title><path class="cls-1" d="M6.78,13.19V5.74a.61.61,0,0,0-.61-.61h0a.61.61,0,0,0-.61.61v7.45a.61.61,0,1,0,1.23,0Zm-1.1-12h4.64a.62.62,0,0,0,.61-.61A.61.61,0,0,0,10.32,0H5.68a.61.61,0,1,0,0,1.22Zm7.57,2.93a.61.61,0,0,0-.6.49h0v9.65a.49.49,0,0,1-.48.49H3.85a.49.49,0,0,1-.49-.49V4.64h0a.61.61,0,0,0-1.2,0h0V15.26a.73.73,0,0,0,.73.74H13.13a.73.73,0,0,0,.73-.74V4.64h0A.61.61,0,0,0,13.25,4.15Zm-2.81,9V5.74a.61.61,0,0,0-1.22,0v7.45a.61.61,0,1,0,1.22,0ZM15,2H1A.61.61,0,0,0,1,3.18H15A.61.61,0,0,0,15,2Z"/></svg>