<?xml version="1.0" encoding="utf-8"?>
<!-- Generator: Adobe Illustrator 21.0.0, SVG Export Plug-In . SVG Version: 6.00 Build 0)  -->
<svg version="1.1" id="图层_1" xmlns="http://www.w3.org/2000/svg" xmlns:xlink="http://www.w3.org/1999/xlink" x="0px" y="0px"
	 viewBox="0 0 16 16" style="enable-background:new 0 0 16 16;" xml:space="preserve">
<style type="text/css">
	.st0{fill:#999999;}
</style>
<path class="st0" d="M10.9,5.3C10.6,5,10.1,5,9.8,5.3L8.1,7L6.3,5.3C6.1,5,5.6,5,5.3,5.3C5,5.5,5,6,5.3,6.3L7,8.1L5.3,9.8
	c-0.3,0.3-0.3,0.8,0,1.1c0.3,0.3,0.8,0.3,1.1,0l1.8-1.7l1.7,1.8c0.3,0.3,0.8,0.3,1.1,0c0.3-0.3,0.3-0.8,0-1.1L9.1,8.1l1.8-1.7
	C11.2,6.1,11.2,5.6,10.9,5.3z M13.7,2.5C10.7-0.6,5.6-0.7,2.5,2.4s-3.2,8.1-0.1,11.2c3.1,3.1,8.1,3.2,11.2,0.1
	C16.8,10.7,16.8,5.6,13.7,2.5z M12.6,12.7C10,15.2,6,15.1,3.5,12.6C1,10.1,1,6,3.5,3.5s6.6-2.5,9.1,0.1
	C15.2,6.1,15.1,10.2,12.6,12.7z"/>
</svg>
