<?xml version="1.0" encoding="utf-8"?>
<!-- Generator: Adobe Illustrator 21.0.0, SVG Export Plug-In . SVG Version: 6.00 Build 0)  -->
<svg version="1.1" id="图层_1" xmlns="http://www.w3.org/2000/svg" xmlns:xlink="http://www.w3.org/1999/xlink" x="0px" y="0px"
	 viewBox="0 0 16 16" style="enable-background:new 0 0 16 16;" xml:space="preserve">
<style type="text/css">
	.st0{fill:#999999;}
</style>
<path class="st0" d="M14.8,8.6c-0.4,0-0.7,0.3-0.7,0.7v4.4c0,0.2-0.4,0.6-0.6,0.6H2.4c-0.3,0-0.6-0.3-0.6-0.6V2.4
	c0-0.3,0.3-0.6,0.6-0.6h4.5c0.4,0,0.7-0.3,0.7-0.7S7.3,0.5,7,0.5H2C1.3,0.5,0.5,1.2,0.5,2v11.9c0,0.9,0.8,1.6,1.5,1.6h11.8
	c0.4,0,0.8,0,1.2-0.5c0.4-0.5,0.4-0.9,0.4-1.3V9.2C15.5,8.8,15.2,8.6,14.8,8.6z"/>
<path class="st0" d="M14.8,0.5h-4.2c-0.4,0-0.7,0.3-0.7,0.7s0.3,0.7,0.7,0.7h2.6L6.3,8.7C6,9,6,9.4,6.3,9.7C6.6,10,7,10,7.3,9.7l0,0
	l6.9-6.9v2.6c0,0.4,0.3,0.7,0.7,0.7c0.4,0,0.7-0.3,0.7-0.7V1.2C15.5,0.8,15.2,0.5,14.8,0.5z"/>
</svg>
