<?xml version="1.0" encoding="utf-8"?>
<!-- Generator: Adobe Illustrator 21.0.0, SVG Export Plug-In . SVG Version: 6.00 Build 0)  -->
<svg version="1.1" id="图层_1" xmlns="http://www.w3.org/2000/svg" xmlns:xlink="http://www.w3.org/1999/xlink" x="0px" y="0px"
	 viewBox="0 0 16 16" style="enable-background:new 0 0 16 16;" xml:space="preserve">
<style type="text/css">
	.st0{fill:#D43F39;}
</style>
<path class="st0" d="M8.1,15.9H7.9c-0.7,0-1.2-0.5-1.2-1.2l0-13.5c0-0.7,0.5-1.2,1.2-1.2h0.1c0.7,0,1.2,0.5,1.2,1.2v13.5
	C9.3,15.4,8.7,15.9,8.1,15.9z"/>
<path class="st0" d="M1.2,12l-0.1-0.1c-0.3-0.6-0.1-1.3,0.4-1.7l11.7-6.7c0.6-0.3,1.3-0.1,1.7,0.4l0.1,0.1c0.3,0.6,0.1,1.3-0.4,1.7
	L2.8,12.5C2.2,12.8,1.5,12.6,1.2,12z"/>
<path class="st0" d="M1.1,4.1L1.2,4c0.3-0.6,1.1-0.8,1.7-0.4l11.7,6.7c0.6,0.3,0.8,1.1,0.4,1.7L14.8,12c-0.3,0.6-1.1,0.8-1.7,0.4
	L1.5,5.7C1,5.4,0.8,4.7,1.1,4.1z"/>
</svg>
