<?xml version="1.0" encoding="utf-8"?>
<!-- Generator: Adobe Illustrator 21.0.0, SVG Export Plug-In . SVG Version: 6.00 Build 0)  -->
<svg version="1.1" id="图层_1" xmlns="http://www.w3.org/2000/svg" xmlns:xlink="http://www.w3.org/1999/xlink" x="0px" y="0px"
	 viewBox="0 0 16 16" style="enable-background:new 0 0 16 16;" xml:space="preserve">
<style type="text/css">
	.st0{fill:#0C9D0F;}
</style>
<path class="st0" d="M12.2,0h-8c-0.6,0-1,0.4-1,1l0,0v14c0,0.6,0.4,1,1,1l0,0h8c0.6,0,1-0.4,1-1V1C13.2,0.4,12.7,0,12.2,0
	C12.2,0,12.2,0,12.2,0z M8.2,15c-0.6,0-1-0.4-1-1s0.4-1,1-1s1,0.4,1,1S8.7,15,8.2,15L8.2,15z M12.2,12h-8V2h8L12.2,12L12.2,12z"/>
</svg>
