<?xml version="1.0" standalone="no"?><!DOCTYPE svg PUBLIC "-//W3C//DTD SVG 1.1//EN" "http://www.w3.org/Graphics/SVG/1.1/DTD/svg11.dtd"><svg t="1538039505173" class="icon" style="" viewBox="0 0 1137 1024" version="1.1" xmlns="http://www.w3.org/2000/svg" p-id="4607" xmlns:xlink="http://www.w3.org/1999/xlink" width="33.310546875" height="30"><defs><style type="text/css"></style></defs><path d="M398.222222 967.111111v-113.777778H113.777778a113.777778 113.777778 0 0 1-113.777778-113.777777V113.777778a113.777778 113.777778 0 0 1 113.777778-113.777778h910.222222a113.777778 113.777778 0 0 1 113.777778 113.777778v625.777778a113.777778 113.777778 0 0 1-113.777778 113.777777h-284.444444v113.777778h227.555555v56.888889H170.666667v-56.888889h227.555555zM113.777778 56.888889a56.888889 56.888889 0 0 0-56.888889 56.888889v625.777778a56.888889 56.888889 0 0 0 56.888889 56.888888h910.222222a56.888889 56.888889 0 0 0 56.888889-56.888888V113.777778a56.888889 56.888889 0 0 0-56.888889-56.888889H113.777778z" fill="#999999" p-id="4608"></path><path d="M170.666667 512h113.777777v170.666667H170.666667V512z m227.555555-56.888889h113.777778v227.555556H398.222222V455.111111z m227.555556-284.444444h113.777778v512h-113.777778V170.666667z m227.555555 170.666666h113.777778v341.333334h-113.777778V341.333333z" fill="#999999" p-id="4609"></path></svg>