<?xml version="1.0" encoding="utf-8"?>
<!-- Generator: Adobe Illustrator 21.0.0, SVG Export Plug-In . SVG Version: 6.00 Build 0)  -->
<svg version="1.1" id="图层_1" xmlns="http://www.w3.org/2000/svg" xmlns:xlink="http://www.w3.org/1999/xlink" x="0px" y="0px"
	 viewBox="0 0 16 16" style="enable-background:new 0 0 16 16;" xml:space="preserve">
<style type="text/css">
	.st0{fill:#999999;}
</style>
<path class="st0" d="M15.4,16H0.6C0.3,16,0,15.7,0,15.4c0,0,0,0,0,0V2.1c0-0.3,0.3-0.6,0.6-0.6h1.2c0.3,0,0.6,0.3,0.6,0.6
	c0,0.3-0.3,0.6-0.6,0.6H1.2v12.1h13.5V2.7h-0.6c-0.3,0-0.6-0.3-0.6-0.6c0-0.3,0.3-0.6,0.6-0.6h1.2c0.3,0,0.6,0.3,0.6,0.6
	c0,0,0,0,0,0v13.3C16,15.7,15.7,16,15.4,16C15.4,16,15.4,16,15.4,16z"/>
<path class="st0" d="M4.3,0C3.9,0,3.7,0.3,3.7,0.6v2.5c0,0.3,0.3,0.6,0.6,0.6c0.3,0,0.6-0.3,0.6-0.6V0.6C4.9,0.3,4.6,0,4.3,0z
	 M11.7,0c-0.3,0-0.6,0.3-0.6,0.6c0,0,0,0,0,0v2.5c0,0.3,0.3,0.6,0.6,0.6c0.3,0,0.6-0.3,0.6-0.6V0.6C12.3,0.3,12,0,11.7,0
	C11.7,0,11.7,0,11.7,0z M9.2,1.5H6.7c-0.3,0-0.6,0.3-0.6,0.6c0,0.3,0.3,0.6,0.6,0.6h2.5c0.3,0,0.6-0.3,0.6-0.6
	C9.8,1.8,9.6,1.5,9.2,1.5z M4.3,6H3C2.7,6,2.4,6.3,2.4,6.6C2.4,7,2.7,7.3,3,7.3h1.2c0.3,0,0.6-0.3,0.6-0.6C4.9,6.3,4.6,6,4.3,6z
	 M4.3,8.5H3c-0.3,0-0.6,0.3-0.6,0.6c0,0.3,0.3,0.6,0.6,0.6h1.2c0.3,0,0.6-0.3,0.6-0.6C4.9,8.8,4.6,8.5,4.3,8.5z M12.9,6h-1.2
	c-0.3,0-0.6,0.3-0.6,0.6c0,0.3,0.3,0.6,0.6,0.6h1.2c0.3,0,0.6-0.3,0.6-0.6C13.5,6.3,13.3,6,12.9,6z M12.9,8.5h-1.2
	c-0.3,0-0.6,0.3-0.6,0.6c0,0.3,0.3,0.6,0.6,0.6h1.2c0.3,0,0.6-0.3,0.6-0.6C13.5,8.8,13.3,8.5,12.9,8.5z M8.6,6H7.4
	C7,6,6.7,6.3,6.7,6.6C6.7,7,7,7.3,7.4,7.3h1.2c0.3,0,0.6-0.3,0.6-0.6C9.2,6.3,8.9,6,8.6,6z M8.6,8.5H7.4C7,8.5,6.8,8.8,6.8,9.1
	c0,0.3,0.3,0.6,0.6,0.6h1.2c0.3,0,0.6-0.3,0.6-0.6C9.2,8.8,8.9,8.5,8.6,8.5z M4.3,11H3c-0.3,0-0.6,0.3-0.6,0.6
	c0,0.3,0.3,0.6,0.6,0.6h1.2c0.3,0,0.6-0.3,0.6-0.6C4.9,11.2,4.6,11,4.3,11z M8.6,11H7.4c-0.3,0-0.6,0.3-0.6,0.6
	c0,0.3,0.3,0.6,0.6,0.6h1.2c0.3,0,0.6-0.3,0.6-0.6C9.2,11.2,8.9,11,8.6,11z"/>
</svg>
