<?xml version="1.0" standalone="no"?><!DOCTYPE svg PUBLIC "-//W3C//DTD SVG 1.1//EN" "http://www.w3.org/Graphics/SVG/1.1/DTD/svg11.dtd"><svg t="1538039399915" class="icon" style="" viewBox="0 0 1024 1024" version="1.1" xmlns="http://www.w3.org/2000/svg" p-id="1777" xmlns:xlink="http://www.w3.org/1999/xlink" width="16" height="16"><defs><style type="text/css"></style></defs><path d="M512 677.290667c19.370667 0 38.656 7.936 52.309333 21.674666 13.738667 13.653333 21.674667 32.938667 21.674667 52.309334a75.093333 75.093333 0 0 1-21.674667 52.309333 74.922667 74.922667 0 0 1-52.309333 21.674667 74.837333 74.837333 0 0 1-52.309333-21.674667 74.837333 74.837333 0 0 1-21.674667-52.309333c0-19.370667 7.936-38.656 21.674667-52.309334A74.922667 74.922667 0 0 1 512 677.290667z m-1.706667-464.384c52.309333 0 93.866667 15.445333 124.757334 46.336 30.890667 30.890667 46.250667 66.816 46.250666 107.776 0 22.613333-5.632 44.117333-16.896 64.341333-11.349333 20.224-35.584 47.786667-72.533333 82.688-19.2 17.92-31.146667 32.426667-35.754667 43.52-4.608 10.922667-6.826667 30.549333-6.314666 58.88h-82.602667a2073.6 2073.6 0 0 1-0.341333-24.490667c0-30.293333 4.522667-55.125333 13.312-74.666666 8.789333-19.456 26.538667-41.386667 53.077333-65.792 26.453333-24.405333 42.410667-40.362667 47.530667-47.957334a69.973333 69.973333 0 0 0 11.946666-39.509333 70.229333 70.229333 0 0 0-21.248-51.2c-14.08-14.336-33.28-21.418667-57.173333-21.418667a80.981333 80.981333 0 0 0-58.026667 22.186667c-15.616 14.848-29.013333 47.616-32.170666 67.84-2.986667 19.114667-84.48 27.136-83.456-11.605333 1.024-38.656 18.773333-80.725333 49.408-111.189334 30.549333-30.464 70.656-45.738667 120.32-45.738666z" p-id="1778" fill="#d43f39"></path><path d="M512 0C229.802667 0 0 229.632 0 512c0 282.453333 229.717333 512 512 512s512-229.546667 512-512c0-282.368-229.632-512-512-512z m-0.341333 958.890667A448 448 0 0 1 64.085333 511.488 448 448 0 0 1 511.658667 63.914667a448 448 0 0 1 447.658666 447.573333 448 448 0 0 1-447.658666 447.402667z" p-id="1779" fill="#d43f39"></path></svg>