<?xml version="1.0" encoding="utf-8"?>
<!-- Generator: Adobe Illustrator 21.0.0, SVG Export Plug-In . SVG Version: 6.00 Build 0)  -->
<svg version="1.1" id="图层_1" xmlns="http://www.w3.org/2000/svg" xmlns:xlink="http://www.w3.org/1999/xlink" x="0px" y="0px"
	 viewBox="0 0 50 50" style="enable-background:new 0 0 50 50;" xml:space="preserve">
<style type="text/css">
	.st0{fill:#33A1F0;}
</style>
<g>
	<path class="st0" d="M12.1,18.5v3.7c0,0.4,0.3,0.8,0.8,0.8H24v-5.3H12.9C12.5,17.7,12.1,18,12.1,18.5z"/>
	<path class="st0" d="M14,25.9v11.2c0,0.4,0.3,0.8,0.8,0.8H24V25.1h-9.2C14.4,25.1,14,25.4,14,25.9z"/>
	<path class="st0" d="M34.6,13.2c0-0.3-0.1-0.6-0.6-0.9c-0.4-0.3-1.1-0.3-2-0.1c-1.5,0.4-3.4,1.7-4.9,3.4h6.3
		C33.8,15.1,34.7,14,34.6,13.2z"/>
	<path class="st0" d="M22.8,15.6c-1.4-1.7-3.3-3-4.9-3.4c-0.8-0.2-1.5-0.2-2,0.1c-0.5,0.4-0.6,0.7-0.6,0.9c-0.1,0.9,0.8,2,1.2,2.4
		H22.8z"/>
	<path class="st0" d="M35.2,25.1H26v12.8h9.2c0.5,0,0.8-0.3,0.8-0.8V25.9C36,25.5,35.7,25.1,35.2,25.1z"/>
	<path class="st0" d="M25,0C11.1,0,0,11.2,0,25c0,13.8,11.2,25,25,25s25-11.2,25-25C50,11.2,38.8,0,25,0z M39.9,22.2
		c0,1.2-0.8,2.3-2,2.7c0.1,0.3,0.2,0.7,0.2,1v11.3c0,1.6-1.3,2.9-2.9,2.9H14.7c-1.6,0-2.9-1.3-2.9-2.9V26c0-0.4,0.1-0.7,0.2-1
		c-1.2-0.4-2-1.5-2-2.8v-3.7c0-1.6,1.3-2.9,2.9-2.9h1c-0.5-0.9-0.7-1.8-0.7-2.6c0.1-0.7,0.4-1.6,1.6-2.4c1-0.6,2.2-0.8,3.6-0.4
		c2.2,0.5,4.9,2.5,6.6,4.8c1.7-2.3,4.4-4.3,6.6-4.8c1.4-0.4,2.6-0.2,3.6,0.4c1.1,0.8,1.4,1.7,1.5,2.4c0.1,0.8-0.2,1.7-0.7,2.6h1.1
		c1.6,0,2.9,1.3,2.8,2.9V22.2z"/>
	<path class="st0" d="M37.1,17.6H26V23h11.1c0.4,0,0.8-0.3,0.8-0.8v-3.7C37.9,18,37.5,17.6,37.1,17.6z"/>
</g>
</svg>
