<svg id="图层_1" data-name="图层 1" xmlns="http://www.w3.org/2000/svg" viewBox="0 0 15.98 15.92"><defs><style>.cls-1{fill:#999;}</style></defs><title>移动</title><path class="cls-1" d="M15.9,7.93l-2-1.75a.21.21,0,0,0-.35.14V7.58H8.49v-5H9.75A.24.24,0,0,0,10,2.27L8.21.18a.2.2,0,0,0-.35,0L6.11,2.27c-.14.14,0,.35.21.35H7.58v5h-5V6.33a.24.24,0,0,0-.24-.24l-.11,0L.1,7.86a.2.2,0,0,0,0,.35L2.2,10c.14.14.35,0,.35-.21V8.49h5v5.1H6.25a.2.2,0,0,0-.14.35l1.75,2a.32.32,0,0,0,.35,0L10,14a.21.21,0,0,0-.14-.35H8.56V8.49h5V9.75a.2.2,0,0,0,.35.14l2-1.75C16,8.14,16,8,15.9,7.93Z" transform="translate(0 -0.08)"/></svg>