<svg id="图层_1" data-name="图层 1" xmlns="http://www.w3.org/2000/svg" viewBox="0 0 16 15.7"><defs><style>.cls-1{fill:#999;}</style></defs><title>编辑</title><path class="cls-1" d="M11.47,3.09a.53.53,0,0,0-.2-.72h0L9.42,1.29a.53.53,0,0,0-.72.19h0L3.45,10.56l.39,2.53,2.39-.93ZM7.77,1A1.59,1.59,0,0,1,9.91.32l.09,0h0l1.8,1.07a1.6,1.6,0,0,1,.59,2.18h0L7,13,3,14.58l-.64-4.22Zm.39,1.46-.53.92L10.4,5l.53-1Zm7.38,12.9ZM0,15.31a.5.5,0,0,1,.46-.53H15.54a.54.54,0,0,1,0,1.06H.46A.5.5,0,0,1,0,15.31Z" transform="translate(0 -0.14)"/></svg>