<?xml version="1.0" encoding="utf-8"?>
<!-- Generator: Adobe Illustrator 21.0.0, SVG Export Plug-In . SVG Version: 6.00 Build 0)  -->
<svg version="1.1" id="图层_1" xmlns="http://www.w3.org/2000/svg" xmlns:xlink="http://www.w3.org/1999/xlink" x="0px" y="0px"
	 viewBox="0 0 50 50" style="enable-background:new 0 0 50 50;" xml:space="preserve">
<style type="text/css">
	.st0{fill:#33A1F0;}
</style>
<path class="st0" d="M25,0C11.2,0,0,11.2,0,25s11.2,25,25,25s25-11.2,25-25S38.8,0,25,0z M20.5,11.6c0-0.8,0.6-1.6,1.4-1.6h6.4
	c0.7,0,1.4,0.8,1.4,1.7c0,0.8-0.7,1.6-1.4,1.6h-6.5C21,13.3,20.4,12.5,20.5,11.6z M32,18.4c0.5,0,0.9,0.5,0.9,1c0,0.6-0.4,1-0.9,1
	H18c-0.5,0-0.9-0.5-0.9-1s0.5-1,1-1H32z M32,25.6H18.1c-0.5,0-0.9-0.5-0.9-1c0-0.6,0.4-1,0.9-1H32c0.5,0,0.9,0.4,0.9,1
	C32.9,25.2,32.5,25.6,32,25.6z M32.9,30.2c0,0.6-0.4,1-0.9,1H18.1c-0.5,0-0.9-0.4-0.9-1c0-0.6,0.4-1,0.9-1H32
	C32.5,29.2,32.9,29.6,32.9,30.2z M38.9,36.1c0,2.5-1.4,3.9-3.9,3.9H15c-2.5,0-3.9-1.6-3.9-3.9V14.8c0-2.2,1.1-3.8,3.7-3.8h2.4
	c0.5,0,0.7,0.3,0.7,0.8s-0.2,1-0.7,1h-2.3c-1.2,0-1.9,0.8-1.9,1.9v21.5c0,1.1,1.2,1.9,2.3,1.9h19.9c1.2,0,1.9-0.8,1.9-1.9V14.6
	c0-1.1-0.8-1.9-1.9-1.9h-1.9c-0.5,0-1.1-0.5-1.1-1s0.6-0.8,1.1-0.8h1.9c2.4,0,3.7,1.7,3.7,3.8V36.1z"/>
</svg>
