<?xml version="1.0" encoding="utf-8"?>
<!-- Generator: Adobe Illustrator 21.0.0, SVG Export Plug-In . SVG Version: 6.00 Build 0)  -->
<svg version="1.1" id="图层_1" xmlns="http://www.w3.org/2000/svg" xmlns:xlink="http://www.w3.org/1999/xlink" x="0px" y="0px"
	 viewBox="0 0 30 30" style="enable-background:new 0 0 30 30;" xml:space="preserve">
<style type="text/css">
	.st0{fill:#999999;}
</style>
<path class="st0" d="M25.2,0.9h-1.9c-0.5,0-1.1,0.3-1.1,0.8c0,0.5,0.6,1,1.1,1h1.9c1.1,0,1.9,0.8,1.9,1.9v21.6
	c0,1.1-0.7,1.9-1.9,1.9H5.3c-1.1,0-2.3-0.8-2.3-1.9L3,4.7c0-1.1,0.7-1.9,1.9-1.9h2.3c0.5,0,0.7-0.5,0.7-1c0-0.5-0.2-0.8-0.7-0.8H4.8
	c-2.6,0-3.7,1.6-3.7,3.8v21.3C1.1,28.4,2.5,30,5,30h20c2.5,0,3.9-1.4,3.9-3.9V4.7C28.9,2.6,27.6,0.9,25.2,0.9L25.2,0.9L25.2,0.9z
	 M7.1,9.4c0,0.5,0.4,1,0.9,1H22c0.5,0,0.9-0.4,0.9-1c0-0.5-0.4-1-0.9-1l-13.9,0C7.6,8.4,7.1,8.9,7.1,9.4L7.1,9.4L7.1,9.4z M22,13.6
	H8.1c-0.5,0-0.9,0.4-0.9,1c0,0.5,0.4,1,0.9,1H22c0.5,0,0.9-0.4,0.9-1C22.9,14,22.5,13.6,22,13.6L22,13.6L22,13.6z M22,19.2H8.1
	c-0.5,0-0.9,0.4-0.9,1s0.4,1,0.9,1H22c0.5,0,0.9-0.4,0.9-1C22.9,19.6,22.5,19.2,22,19.2L22,19.2L22,19.2z M11.8,3.3h6.5
	c0.7,0,1.4-0.8,1.4-1.6C19.7,0.8,19,0,18.3,0h-6.4c-0.8,0-1.4,0.8-1.4,1.6C10.4,2.5,11,3.3,11.8,3.3L11.8,3.3L11.8,3.3z"/>
</svg>
