<?xml version="1.0" standalone="no"?><!DOCTYPE svg PUBLIC "-//W3C//DTD SVG 1.1//EN" "http://www.w3.org/Graphics/SVG/1.1/DTD/svg11.dtd"><svg t="1538039533471" class="icon" style="" viewBox="0 0 1024 1024" version="1.1" xmlns="http://www.w3.org/2000/svg" p-id="5041" xmlns:xlink="http://www.w3.org/1999/xlink" width="30" height="30"><defs><style type="text/css"></style></defs><path d="M511.829333 365.102545c-75.931152 0-137.712485 62.43297-137.712485 139.139879s61.781333 139.139879 137.712485 139.139879c75.962182 0 137.743515-62.43297 137.743515-139.139879s-61.781333-139.139879-137.743515-139.139879m0 346.701576c-113.260606 0-205.451636-93.090909-205.451636-207.592727 0-114.408727 92.16-207.530667 205.451636-207.530667 113.291636 0 205.482667 93.090909 205.482667 207.561697 0 114.439758-92.16 207.561697-205.482667 207.561697" fill="#999999" p-id="5042"></path><path d="M589.405091 1.396364h-155.151515c-37.236364 0-67.739152 35.064242-67.739152 72.704v41.425454a14.211879 14.211879 0 0 1-14.056727 14.211879 13.963636 13.963636 0 0 1-9.929697-4.158061l-29.013333-29.292606A67.149576 67.149576 0 0 0 265.603879 76.334545c-17.37697 0-34.691879 6.640485-47.879758 19.952485L107.969939 207.127273a69.135515 69.135515 0 0 0 0 96.752485l29.013334 29.292606c4.033939 4.06497 5.213091 10.177939 3.040969 15.515151a14.056727 14.056727 0 0 1-13.001697 8.750546H86.062545c-37.236364 0-70.562909 30.782061-70.562909 68.421818v156.765091c0 37.639758 33.295515 68.421818 70.562909 68.421818h40.991031c5.678545 0 10.829576 3.475394 13.001697 8.781576a14.336 14.336 0 0 1-3.04097 15.484121l-29.013333 29.292606a69.135515 69.135515 0 0 0 0 96.752485l109.723151 110.840242c13.187879 13.312 30.533818 19.952485 47.879758 19.952485 17.37697 0 34.753939-6.640485 47.910788-19.952485l28.982303-29.292606a13.994667 13.994667 0 0 1 24.017454 10.053818v41.425455c0 37.639758 30.502788 71.276606 67.739152 71.276606h155.151515c37.267394 0 67.739152-33.667879 67.739151-71.276606v-41.425455a14.211879 14.211879 0 0 1 14.087758-14.211878c3.661576 0 7.261091 1.458424 9.929697 4.15806l28.982303 29.292606c13.187879 13.312 30.564848 19.952485 47.910788 19.952485 17.37697 0 34.753939-6.640485 47.910788-19.952485l109.723151-110.840242a69.135515 69.135515 0 0 0 0-96.752485l-29.013333-29.292606a14.336 14.336 0 0 1-3.04097-15.515152 14.056727 14.056727 0 0 1 13.001697-8.750545h40.991031c37.236364 0 70.562909-30.782061 70.562909-68.421818v-156.765091c0-37.639758-33.326545-68.421818-70.562909-68.421818h-40.991031a14.056727 14.056727 0 0 1-13.032727-8.781576 14.336 14.336 0 0 1 3.10303-15.484121l28.982303-29.292606a69.135515 69.135515 0 0 0 0-96.752485l-109.723151-110.840243a67.149576 67.149576 0 0 0-47.910788-19.952485c-17.37697 0-34.722909 6.640485-47.910788 19.952485l-28.982303 29.292606a13.963636 13.963636 0 0 1-15.32897 3.103031 14.211879 14.211879 0 0 1-8.688485-13.156849V74.100364c0-37.639758-30.471758-72.704-67.739151-72.704z m0 68.421818v45.707636c0 33.543758 19.859394 63.51903 50.517333 76.334546a80.833939 80.833939 0 0 0 89.150061-17.904485l28.982303-29.292606 109.723151 110.840242-28.982303 29.292606a83.006061 83.006061 0 0 0-17.749333 90.04994 81.547636 81.547636 0 0 0 75.589818 51.013818h43.814788v156.765091h-43.814788c-33.202424 0-62.867394 20.014545-75.589818 50.982788a83.006061 83.006061 0 0 0 17.749333 90.080969l28.982303 29.292606-109.723151 110.840243-28.982303-29.292606a80.833939 80.833939 0 0 0-89.150061-17.904485 82.416485 82.416485 0 0 0-50.517333 76.334545v44.280243h-155.151515v-44.280243a82.385455 82.385455 0 0 0-50.486303-76.334545 80.86497 80.86497 0 0 0-89.150061 17.904485l-29.013333 29.292606-109.692121-110.840243 28.982303-29.292606c23.489939-23.707152 30.440727-59.081697 17.718303-90.049939a81.547636 81.547636 0 0 0-75.558788-51.013818H83.238788v-156.765091h43.814788c33.202424 0 62.867394-20.014545 75.558788-51.013818a83.006061 83.006061 0 0 0-17.687273-90.04994l-29.013333-29.292606L265.603879 144.663273l29.013333 29.292606a80.833939 80.833939 0 0 0 89.150061 17.904485 82.416485 82.416485 0 0 0 50.486303-76.334546V69.818182h155.151515z" fill="#999999" p-id="5043"></path></svg>