<svg id="图层_1" data-name="图层 1" xmlns="http://www.w3.org/2000/svg" viewBox="0 0 15.87 15.87"><defs><style>.cls-1{fill:#999;}</style></defs><title>更多</title><path class="cls-1" d="M5.35.06H2.18A2.13,2.13,0,0,0,.06,2.17V5.35A2.13,2.13,0,0,0,2.18,7.47H5.35A2.13,2.13,0,0,0,7.47,5.35V2.17A2.13,2.13,0,0,0,5.35.06ZM6.41,5.35a1.06,1.06,0,0,1-1.06,1H2.18a1.06,1.06,0,0,1-1.06-1V2.17A1.06,1.06,0,0,1,2.18,1.11H5.35A1.06,1.06,0,0,1,6.41,2.17ZM5.35,8.52H2.18A2.13,2.13,0,0,0,.06,10.65v3.17a2.13,2.13,0,0,0,2.12,2.12H5.35a2.13,2.13,0,0,0,2.12-2.12V10.65A2.13,2.13,0,0,0,5.35,8.52Zm1.06,5.29a1.06,1.06,0,0,1-1.06,1.06H2.18a1.06,1.06,0,0,1-1.06-1.06h0V10.65A1.06,1.06,0,0,1,2.18,9.59H5.35a1.06,1.06,0,0,1,1.06,1.06ZM13.82.06H10.65A2.13,2.13,0,0,0,8.53,2.18V5.35a2.13,2.13,0,0,0,2.12,2.11h3.17a2.13,2.13,0,0,0,2.12-2.11V2.17A2.13,2.13,0,0,0,13.82.06Zm1.06,5.29a1.06,1.06,0,0,1-1.06,1.06H10.65A1.06,1.06,0,0,1,9.59,5.35V2.17a1.06,1.06,0,0,1,1.06-1.06h3.17a1.06,1.06,0,0,1,1.06,1.06h0ZM13.82,8.53H10.65a2.13,2.13,0,0,0-2.12,2.12v3.17a2.13,2.13,0,0,0,2.12,2.12h3.17a2.13,2.13,0,0,0,2.12-2.12V10.65a2.13,2.13,0,0,0-2.12-2.13Zm1.06,5.29a1.06,1.06,0,0,1-1.06,1.06H10.65a1.06,1.06,0,0,1-1.06-1.06h0V10.65a1.06,1.06,0,0,1,1.06-1.06h3.17a1.06,1.06,0,0,1,1.06,1.06Z" transform="translate(-0.06 -0.06)"/></svg>