<?xml version="1.0" encoding="utf-8"?>
<!-- Generator: Adobe Illustrator 21.0.0, SVG Export Plug-In . SVG Version: 6.00 Build 0)  -->
<svg version="1.1" id="图层_1" xmlns="http://www.w3.org/2000/svg" xmlns:xlink="http://www.w3.org/1999/xlink" x="0px" y="0px"
	 viewBox="0 0 16 16" style="enable-background:new 0 0 16 16;" xml:space="preserve">
<style type="text/css">
	.st0{fill:#0C9D0F;}
</style>
<path class="st0" d="M14,14.7H2.1c-1.1,0-2-0.9-2-2V3.8c0-1.1,0.9-2,2-2H14c1.1,0,2,0.9,2,2v8.9C16,13.8,15.1,14.7,14,14.7
	 M2.1,13.7H14c0.5,0,1-0.4,1-1V5.8H1.1v6.9C1.1,13.2,1.6,13.7,2.1,13.7L2.1,13.7z M14,2.8H2.1c-0.5,0-1,0.4-1,1v1H15v-1
	C15,3.2,14.6,2.8,14,2.8 M2.6,8.7h5c0.3,0,0.5,0.2,0.5,0.5c0,0.3-0.2,0.5-0.5,0.5l-5,0c-0.3,0-0.5-0.2-0.5-0.5
	C2.1,9,2.4,8.7,2.6,8.7 M2.6,10.7h4c0.3,0,0.5,0.2,0.5,0.5c0,0.3-0.2,0.5-0.5,0.5h-4c-0.3,0-0.5-0.2-0.5-0.5
	C2.1,10.9,2.4,10.7,2.6,10.7 M9.6,8.7h1C10.8,8.7,11,9,11,9.2c0,0.3-0.2,0.5-0.5,0.5h-1c-0.3,0-0.5-0.2-0.5-0.5
	C9.1,9,9.3,8.7,9.6,8.7"/>
</svg>
