<?xml version="1.0" encoding="utf-8"?>
<!-- Generator: Adobe Illustrator 21.0.0, SVG Export Plug-In . SVG Version: 6.00 Build 0)  -->
<svg version="1.1" id="图层_1" xmlns="http://www.w3.org/2000/svg" xmlns:xlink="http://www.w3.org/1999/xlink" x="0px" y="0px"
	 viewBox="0 0 30 30" style="enable-background:new 0 0 30 30;" xml:space="preserve">
<style type="text/css">
	.st0{fill:#999999;}
</style>
<path class="st0" d="M27.1,5.6H26c0.5-0.9,0.8-1.8,0.7-2.6c-0.1-0.7-0.4-1.6-1.5-2.4c-1-0.6-2.2-0.8-3.6-0.4C19.4,0.7,16.7,2.7,15,5
	c-1.7-2.3-4.4-4.3-6.6-4.8C7-0.2,5.8,0,4.8,0.6C3.6,1.4,3.3,2.3,3.2,3C3.2,3.8,3.4,4.7,3.9,5.6H2.9C1.3,5.6,0,6.9,0,8.5v3.7
	c0,1.3,0.8,2.4,2,2.8c-0.1,0.3-0.2,0.6-0.2,1v11.2c0,1.6,1.3,2.9,2.9,2.9h20.5c1.6,0,2.9-1.3,2.9-2.9V15.9c0-0.3-0.1-0.7-0.2-1
	c1.2-0.4,2-1.5,2-2.7V8.5C30,6.9,28.7,5.6,27.1,5.6 M25.2,27.9H16V15.1h9.2c0.5,0,0.8,0.4,0.8,0.8v11.2C26,27.6,25.7,27.9,25.2,27.9
	 M17.1,5.6c1.5-1.7,3.4-3,4.9-3.4C22.9,2,23.6,2,24,2.3c0.5,0.3,0.6,0.6,0.6,0.9c0.1,0.8-0.8,1.9-1.2,2.4L17.1,5.6L17.1,5.6z
	 M27.9,8.5v3.7c0,0.5-0.4,0.8-0.8,0.8H16V7.6h11.1C27.5,7.6,27.9,8,27.9,8.5 M14,15.1v12.8H4.8c-0.5,0-0.8-0.4-0.8-0.8V15.9
	c0-0.5,0.4-0.8,0.8-0.8C4.8,15.1,14,15.1,14,15.1z M5.3,3.2c0-0.2,0.1-0.5,0.6-0.9C6.4,2,7.1,2,7.9,2.2c1.6,0.4,3.5,1.7,4.9,3.4H6.5
	C6.1,5.2,5.2,4.1,5.3,3.2 M2.1,8.5c0-0.5,0.4-0.8,0.8-0.8H14V13H2.9c-0.5,0-0.8-0.4-0.8-0.8C2.1,12.2,2.1,8.5,2.1,8.5z"/>
</svg>
