<?xml version="1.0" standalone="no"?><!DOCTYPE svg PUBLIC "-//W3C//DTD SVG 1.1//EN" "http://www.w3.org/Graphics/SVG/1.1/DTD/svg11.dtd"><svg t="1538039510343" class="icon" style="" viewBox="0 0 1024 1024" version="1.1" xmlns="http://www.w3.org/2000/svg" p-id="4824" xmlns:xlink="http://www.w3.org/1999/xlink" width="30" height="30"><defs><style type="text/css"></style></defs><path d="M960 64H64C28.7 64 0 92.7 0 128v704c0 35.3 28.7 64 64 64h352c17.7 0 32-14.3 32-32s-14.3-32-32-32H64V128h896v288c0 17.7 14.3 32 32 32s32-14.3 32-32V128c0-35.3-28.7-64-64-64z" fill="#999999" p-id="4825"></path><path d="M858.3 731.1c35.4-29.4 57.9-73.7 57.9-123.1 0-88.2-71.8-160-160-160s-160 71.8-160 160c0 49.5 22.6 93.7 57.9 123.1-20.5 10.5-39.5 24.3-56.3 41.1-42.3 42.3-65.6 98.6-65.6 158.4 0 17.7 14.3 32 32 32s32-14.3 32-32c0-88.2 71.8-160 160-160s160 71.8 160 160c0 17.7 14.3 32 32 32s32-14.3 32-32c0-59.8-23.3-116.1-65.6-158.4-16.8-16.8-35.8-30.6-56.3-41.1zM756.2 512c52.9 0 96 43.1 96 96s-43.1 96-96 96-96-43.1-96-96 43.1-96 96-96zM544 320H160c-17.7 0-32 14.3-32 32s14.3 32 32 32h384c17.7 0 32-14.3 32-32s-14.3-32-32-32zM480 448H160c-17.7 0-32 14.3-32 32s14.3 32 32 32h320c17.7 0 32-14.3 32-32s-14.3-32-32-32zM416 576H160c-17.7 0-32 14.3-32 32s14.3 32 32 32h256c17.7 0 32-14.3 32-32s-14.3-32-32-32z" fill="#999999" p-id="4826"></path></svg>