<svg id="图层_1" data-name="图层 1" xmlns="http://www.w3.org/2000/svg" viewBox="0 0 30 30"><defs><style>.cls-1{fill:#999;}</style></defs><title>会员</title><path class="cls-1" d="M29.4,10.7,22.9,3a2.84,2.84,0,0,0-2.3-1.1H9.5A3.19,3.19,0,0,0,7.1,3L.6,10.7a3.16,3.16,0,0,0,.1,3.9L12.8,27.1l.2.1a3,3,0,0,0,2,.8h.1a2.88,2.88,0,0,0,2.1-.9L29.1,14.6A2.93,2.93,0,0,0,29.4,10.7Zm-1.7,2.5L15.9,25.7a.91.91,0,0,1-.7.3,1.45,1.45,0,0,1-.7-.2L2.3,13.2a1,1,0,0,1,0-1.3L8.7,4.2a1.14,1.14,0,0,1,.8-.3H20.6a.91.91,0,0,1,.8.4L27.9,12A.94.94,0,0,1,27.7,13.2Z"/><path class="cls-1" d="M21.3,12.8l-6.2,6.4L8.8,12.7a1,1,0,0,0-1.4,0A.93.93,0,0,0,7.3,14l6.4,6.6.1.1a2,2,0,0,0,2.8-.1l6.2-6.5a1.07,1.07,0,0,0-.1-1.4A1,1,0,0,0,21.3,12.8Z"/></svg>