<?xml version="1.0" encoding="utf-8"?>
<!-- Generator: Adobe Illustrator 21.0.0, SVG Export Plug-In . SVG Version: 6.00 Build 0)  -->
<svg version="1.1" id="图层_1" xmlns="http://www.w3.org/2000/svg" xmlns:xlink="http://www.w3.org/1999/xlink" x="0px" y="0px"
	 viewBox="0 0 30 30" style="enable-background:new 0 0 30 30;" xml:space="preserve">
<style type="text/css">
	.st0{fill:#999999;}
</style>
<path class="st0" d="M26.9,9.1h-3c-0.5-1.7-1.2-3.2-2.1-4.5c-0.9-1.3-1.9-2.3-3.1-3c-1.3-0.7-2.6-1.1-4-1.1c-1.4,0-2.7,0.4-4,1.1
	c-1.2,0.7-2.2,1.7-3.1,3C6.7,5.9,6,7.4,5.6,9.1H2.8c-1.5,0-2.7,1.2-2.7,2.7v15.6c0,1.5,1.2,2.7,2.7,2.7h24.1c1.5,0,2.7-1.2,2.7-2.7
	l0-15.6C29.6,10.3,28.4,9.1,26.9,9.1z M9.2,5.7c1.5-2.1,3.5-3.3,5.5-3.3c2.1,0,4,1.2,5.5,3.3c0.7,1,1.3,2.1,1.7,3.4l-14.4,0
	C8,7.8,8.6,6.7,9.2,5.7z M27.6,27.3c0,0.4-0.3,0.7-0.7,0.7H2.8c-0.4,0-0.7-0.3-0.7-0.7V11.7c0-0.4,0.3-0.7,0.7-0.7h2.3
	c-0.2,1-0.2,2-0.2,3c0,0.3,0,0.7,0,1H4.8c-0.5,0-1,0.4-1,1v0.1c0,0.5,0.4,1,1,1h2.1c0.5,0,1-0.4,1-1v-0.1c0-0.5-0.4-1-1-1h0
	c0-0.3,0-0.7,0-1c0-1,0.1-2,0.3-3h15.3c0.2,1,0.3,2,0.3,3c0,0.4,0,0.7,0,1.1c-0.4,0.1-0.8,0.5-0.8,1v0.1c0,0.5,0.4,1,1,1H25
	c0.5,0,1-0.4,1-1v-0.1c0-0.5-0.4-1-1-1h-0.4c0-0.3,0-0.7,0-1c0-1-0.1-2-0.2-3h2.5c0.4,0,0.7,0.3,0.7,0.7L27.6,27.3L27.6,27.3z"/>
</svg>
